<svg width="370" height="320" viewBox="0 0 370 320" fill="none" xmlns="http://www.w3.org/2000/svg">
<path d="M52.9886 292.907C123.644 329.031 238.2 329.031 308.848 292.907C379.495 256.783 379.503 198.18 308.848 162.096C238.192 126.012 123.644 125.972 52.9886 162.096C-17.6668 198.22 -17.6589 256.791 52.9886 292.907Z" fill="black" fill-opacity="0.05"/>
<path d="M284.06 235.203C287.937 237.44 295.547 236.668 301.055 233.484L332.832 215.024C338.349 211.84 339.67 207.446 335.794 205.201C331.917 202.956 324.315 203.752 318.799 206.936L287.037 225.412C281.521 228.572 280.191 232.966 284.06 235.203Z" fill="black" fill-opacity="0.1"/>
<path d="M92.6787 252.23L60.344 233.563L92.6787 214.896V252.23Z" fill="black" fill-opacity="0.1"/>
<path d="M184.071 263.398L131.955 233.293L184.079 203.243L184.071 263.398Z" fill="black" fill-opacity="0.1"/>
<path d="M48.9369 208.584C49.0324 201.022 43.7467 185.284 36.0173 175.374C28.2879 165.463 16.0131 158.132 7.25682 161.021C-0.942267 163.72 -0.18604 174.434 9.64491 181.654C19.4759 188.874 34.2422 197.965 38.4532 210.311L47.4085 225.436L48.9369 208.584Z" fill="#2D8C3C"/>
<path opacity="0.1" d="M48.9369 208.584C49.0324 201.022 43.7467 185.284 36.0173 175.374C28.2879 165.463 16.0131 158.132 7.25682 161.021C-0.942267 163.72 -0.18604 174.434 9.64491 181.654C19.4759 188.874 34.2422 197.965 38.4532 210.311L47.4085 225.436L48.9369 208.584Z" fill="black"/>
<path d="M49.3748 218.94C49.2539 218.93 49.14 218.88 49.0507 218.797C48.9615 218.715 48.9019 218.606 48.8812 218.487C44.1051 192.608 23.4879 171.37 11.046 166.586C10.9708 166.565 10.9008 166.529 10.8404 166.48C10.78 166.431 10.7306 166.369 10.6954 166.3C10.6602 166.23 10.6399 166.154 10.636 166.076C10.632 165.998 10.6444 165.921 10.6724 165.848C10.7004 165.775 10.7433 165.709 10.7984 165.654C10.8535 165.599 10.9195 165.556 10.9922 165.528C11.0649 165.5 11.1427 165.488 11.2205 165.491C11.2983 165.495 11.3745 165.516 11.444 165.551C24.1247 170.43 45.1399 192.019 49.9638 218.288C49.9777 218.359 49.9773 218.432 49.9628 218.503C49.9482 218.574 49.9198 218.641 49.8791 218.701C49.8384 218.761 49.7862 218.812 49.7256 218.852C49.665 218.892 49.5972 218.919 49.526 218.932L49.3748 218.94Z" fill="white"/>
<path d="M45.3229 235.418C44.1607 231.151 39.0502 224.075 30.7238 218.176C21.5058 211.657 9.78825 208.568 7.13747 203.545C3.95336 197.511 9.07182 191.907 18.6003 193.197C28.1287 194.486 44.7498 207.732 47.2016 227.362L45.3229 235.418Z" fill="#2D8C3C"/>
<path d="M47.2254 230.976C47.1191 230.967 47.0176 230.928 46.9329 230.863C46.8483 230.798 46.784 230.71 46.7478 230.61C39.098 208.393 22.3177 200.425 14.5166 199.318C14.372 199.298 14.2413 199.221 14.1532 199.105C14.0651 198.989 14.0269 198.842 14.047 198.697C14.067 198.553 14.1437 198.422 14.2602 198.334C14.3766 198.246 14.5233 198.208 14.6679 198.228C23.2968 199.454 39.9895 207.573 47.7986 230.244C47.8447 230.383 47.8348 230.535 47.7709 230.667C47.707 230.8 47.5942 230.902 47.4563 230.952C47.3817 230.976 47.3032 230.984 47.2254 230.976Z" fill="white"/>
<path d="M331.185 187.036C331.185 187.036 332.243 171.115 341.637 159.254C351.03 147.393 350.457 142.538 343.977 140.149C337.497 137.761 322.484 152.05 325.796 171.115C329.107 190.18 331.185 187.036 331.185 187.036Z" fill="#2D8C3C"/>
<path opacity="0.1" d="M331.185 187.036C331.185 187.036 332.243 171.115 341.637 159.254C351.03 147.393 350.457 142.538 343.977 140.149C337.497 137.761 322.484 152.05 325.796 171.115C329.107 190.18 331.185 187.036 331.185 187.036Z" fill="black"/>
<path d="M328.311 177.945C328.217 177.945 328.126 177.91 328.057 177.847C327.988 177.783 327.945 177.696 327.937 177.603C326.846 160.042 339.24 145.634 343.857 142.37C343.896 142.342 343.94 142.321 343.987 142.31C344.034 142.299 344.083 142.297 344.131 142.306C344.178 142.314 344.224 142.331 344.264 142.358C344.305 142.384 344.34 142.418 344.367 142.458C344.423 142.538 344.445 142.638 344.429 142.735C344.413 142.831 344.359 142.918 344.279 142.975C339.726 146.16 327.563 160.305 328.645 177.555C328.65 177.652 328.617 177.746 328.553 177.819C328.489 177.892 328.399 177.937 328.303 177.945H328.311Z" fill="white"/>
<path d="M328.629 200.218C332.86 201.6 337.193 202.643 341.589 203.338C348.864 204.485 352.08 201.006 352.08 201.006C352.08 201.006 349.215 194.184 345.083 192.25C349.553 193.254 353.822 195.006 357.708 197.432C357.708 197.432 362.15 197.503 363.917 190.721C363.917 190.721 361.29 186.638 352.454 184.433C352.454 184.433 357.828 183.079 365.573 185.053C366.154 185.284 368.63 176.52 369.378 172.476C370.126 168.432 368.502 168.496 365.35 167.628C362.198 166.761 351.746 164.444 349.772 166.172C347.798 167.899 346.795 173.837 346.795 173.837C346.013 171.406 345.911 168.808 346.5 166.323C346.5 166.323 343.666 165.216 339.256 166.498C335.658 167.541 335.483 169.993 335.642 172.763C335.855 175.169 336.391 177.536 337.234 179.8C337.234 179.8 334.424 176.202 334.337 168.393C334.337 168.393 326.966 172.054 325.708 179.378C324.976 183.35 324.004 194.996 328.629 200.218Z" fill="#2D8C3C"/>
<path d="M330.014 198.801C330.092 198.8 330.168 198.779 330.234 198.738C330.3 198.697 330.353 198.639 330.389 198.57C336.255 186.367 358.09 172.19 365.907 170.669C365.96 170.66 366.011 170.64 366.056 170.61C366.101 170.581 366.14 170.543 366.171 170.499C366.201 170.454 366.222 170.404 366.233 170.351C366.244 170.299 366.244 170.244 366.234 170.192C366.211 170.085 366.147 169.991 366.057 169.931C365.966 169.87 365.856 169.846 365.748 169.865C357.788 171.417 335.611 185.786 329.648 198.212C329.602 198.31 329.595 198.423 329.631 198.526C329.667 198.628 329.742 198.713 329.839 198.761C329.895 198.785 329.954 198.799 330.014 198.801Z" fill="white"/>
<path d="M46.087 241.054C45.1875 241.054 44.6462 240.314 44.6462 239.064V105.164L208.652 10.4923V143.851C208.595 144.964 208.278 146.049 207.724 147.017C207.171 147.985 206.398 148.809 205.468 149.423L47.3925 240.648C47.0004 240.895 46.5502 241.035 46.087 241.054Z" fill="#FAFAFA"/>
<path d="M208.158 11.2963V143.851C208.092 144.884 207.788 145.887 207.27 146.783C206.752 147.679 206.035 148.444 205.173 149.017L47.1616 240.242C46.8399 240.45 46.4695 240.571 46.087 240.592C45.2034 240.592 45.1079 239.518 45.1079 239.064V105.435L208.158 11.2963ZM209.09 9.70424L44.1765 104.893V239.064C44.1765 240.656 44.9725 241.524 46.087 241.524C46.6313 241.504 47.161 241.342 47.6233 241.054L205.643 149.821C206.646 149.167 207.481 148.285 208.079 147.248C208.678 146.211 209.024 145.047 209.09 143.851V9.68036V9.70424Z" fill="#E0E0E0"/>
<path d="M44.1846 104.893V127.301L209.09 32.0886V9.68036L44.1846 104.893Z" fill="#2D8C3C"/>
<path d="M57.1121 106.087V109.272C57.1121 109.924 57.5817 110.195 58.1469 109.869L108.846 80.5986V75.0264L58.1469 104.296C57.8474 104.494 57.5981 104.759 57.4185 105.07C57.2389 105.381 57.134 105.729 57.1121 106.087Z" fill="#FAFAFA"/>
<path d="M114.283 71.8899C114.856 71.5556 115.318 71.8263 115.318 72.487V75.6711C115.297 76.0297 115.193 76.3784 115.013 76.6895C114.833 77.0005 114.583 77.2651 114.283 77.4621L108.846 80.5985V75.0263L114.283 71.8899Z" fill="#45644A"/>
<path d="M44.1765 97.6733C44.2419 96.4774 44.588 95.3137 45.1868 94.2765C45.7856 93.2393 46.6203 92.3577 47.6233 91.7031L205.643 0.470314C207.545 -0.628204 209.09 0.263347 209.09 2.46038V9.68036L44.1765 104.893V97.6733Z" fill="#45644A"/>
<path d="M190.757 12.8167C190.291 13.1248 189.904 13.5382 189.627 14.0236C189.351 14.5091 189.192 15.0528 189.165 15.6108C189.165 16.6456 189.889 17.0596 190.757 16.5501C191.223 16.2404 191.61 15.8254 191.887 15.3387C192.163 14.852 192.322 14.3072 192.349 13.7481C192.381 12.7053 191.657 12.2993 190.757 12.8167Z" fill="#2D8C3C"/>
<path d="M195.915 9.85551C195.449 10.1635 195.062 10.577 194.786 11.0624C194.509 11.5478 194.351 12.0916 194.323 12.6496C194.323 13.6844 195.048 14.0983 195.915 13.5889C196.381 13.2782 196.767 12.8631 197.043 12.3766C197.32 11.8901 197.479 11.3457 197.507 10.7869C197.507 9.75202 196.775 9.33809 195.915 9.85551Z" fill="#2D8C3C"/>
<path d="M201.002 6.89426C200.536 7.20231 200.149 7.61577 199.872 8.10118C199.596 8.58659 199.437 9.13031 199.41 9.68832C199.41 10.7232 200.134 11.1371 201.002 10.6276C201.467 10.317 201.854 9.90181 202.13 9.41531C202.406 8.92881 202.565 8.38443 202.594 7.82562C202.618 6.79078 201.894 6.37685 201.002 6.89426Z" fill="#2D8C3C"/>
<g opacity="0.1">
<path d="M157.348 46.6718C156.32 47.3445 155.464 48.25 154.852 49.315C154.239 50.3799 153.886 51.5743 153.821 52.8012C153.821 55.054 155.413 55.9853 157.348 54.8391C158.377 54.169 159.234 53.2653 159.848 52.2016C160.462 51.1379 160.816 49.9442 160.882 48.7176C160.89 46.4648 159.298 45.5494 157.348 46.6718Z" fill="black"/>
<path d="M141.188 56.0093C140.159 56.6793 139.302 57.583 138.688 58.6467C138.074 59.7105 137.72 60.9042 137.654 62.1307C137.654 64.3835 139.246 65.3149 141.188 64.1765C142.217 63.5039 143.072 62.5983 143.684 61.5334C144.297 60.4684 144.65 59.274 144.715 58.0471C144.715 55.7944 143.139 54.8949 141.188 56.0093Z" fill="black"/>
<path d="M173.515 37.3822C172.487 38.0531 171.632 38.9572 171.019 40.0209C170.407 41.0846 170.053 42.2778 169.989 43.5037C169.989 45.7564 171.581 46.6878 173.515 45.5415C174.545 44.8719 175.402 43.9684 176.016 42.9045C176.631 41.8407 176.985 40.6467 177.05 39.42C177.05 37.1275 175.473 36.212 173.515 37.3822Z" fill="black"/>
<path d="M189.69 27.9891C188.661 28.6591 187.804 29.5628 187.19 30.6265C186.576 31.6902 186.222 32.884 186.156 34.1105C186.156 36.3633 187.748 37.2946 189.69 36.1483C190.72 35.4783 191.576 34.5746 192.191 33.5109C192.805 32.4472 193.159 31.2534 193.225 30.0269C193.225 27.7741 191.641 26.8587 189.69 27.9891Z" fill="black"/>
</g>
<path d="M60.5906 129.045L98.9671 106.883C100.87 105.785 102.414 106.676 102.414 108.873V145.722C102.349 146.918 102.002 148.081 101.404 149.118C100.805 150.156 99.9701 151.037 98.9671 151.692L60.5906 173.845C58.6881 174.944 57.1438 174.052 57.1438 171.855V135.015C57.2091 133.819 57.5553 132.655 58.1541 131.618C58.7529 130.581 59.5876 129.699 60.5906 129.045Z" fill="#E0E0E0"/>
<path d="M115.517 97.3071L195.915 50.9146C197.818 49.8081 199.362 50.6996 199.362 52.9046V89.7448C199.297 90.9407 198.951 92.1044 198.352 93.1416C197.753 94.1789 196.918 95.0605 195.915 95.715L115.517 142.108C113.614 143.206 112.07 142.315 112.07 140.117V103.277C112.135 102.081 112.481 100.918 113.08 99.8805C113.679 98.8433 114.514 97.9617 115.517 97.3071Z" fill="#E0E0E0"/>
<path d="M60.5906 185.045L121.598 149.821C123.509 148.723 125.053 149.503 125.053 151.564C124.968 152.722 124.612 153.843 124.013 154.838C123.414 155.832 122.59 156.671 121.606 157.288L60.5906 192.512C58.6881 193.611 57.1438 192.83 57.1438 190.769C57.2289 189.611 57.5852 188.49 58.184 187.496C58.7828 186.501 59.6072 185.662 60.5906 185.045Z" fill="#E0E0E0"/>
<path d="M60.5906 198.116L121.598 162.892C123.509 161.793 125.053 162.573 125.053 164.635C124.968 165.793 124.612 166.914 124.013 167.908C123.414 168.903 122.59 169.742 121.606 170.359L60.5906 205.583C58.6881 206.681 57.1438 205.901 57.1438 203.84C57.2289 202.682 57.5852 201.561 58.184 200.566C58.7828 199.572 59.6072 198.733 60.5906 198.116Z" fill="#E0E0E0"/>
<path d="M60.5906 211.179L121.598 175.955C123.509 174.856 125.053 175.636 125.053 177.698C124.968 178.856 124.612 179.977 124.013 180.971C123.414 181.966 122.59 182.805 121.606 183.421L60.5906 218.646C58.6881 219.744 57.1438 218.964 57.1438 216.902C57.2289 215.745 57.5852 214.624 58.184 213.629C58.7828 212.635 59.6072 211.796 60.5906 211.179Z" fill="#E0E0E0"/>
<path d="M89.4468 166.872C89.4875 166.155 89.696 165.457 90.0555 164.835C90.4149 164.213 90.9153 163.684 91.5165 163.29L197.317 102.211C197.958 101.885 198.667 101.715 199.386 101.715C200.105 101.715 200.815 101.885 201.456 102.211L203.788 103.556C204.389 103.949 204.889 104.478 205.247 105.101C205.606 105.723 205.812 106.421 205.85 107.138V188.237C205.811 188.954 205.604 189.652 205.246 190.274C204.888 190.896 204.388 191.426 203.788 191.82L98.0041 252.899C97.3628 253.225 96.6537 253.394 95.9344 253.394C95.2151 253.394 94.506 253.225 93.8647 252.899L91.5324 251.554C90.9308 251.16 90.4301 250.631 90.0706 250.009C89.7111 249.387 89.5028 248.689 89.4627 247.971L89.4468 166.872Z" fill="#2D8C3C"/>
<path opacity="0.4" d="M90.0437 164.834L95.9184 168.225L205.237 105.1C204.887 104.47 204.387 103.937 203.78 103.548L201.488 102.211C200.849 101.885 200.143 101.715 199.426 101.715C198.709 101.715 198.003 101.885 197.364 102.211L91.5164 163.29C90.903 163.672 90.3964 164.203 90.0437 164.834Z" fill="white"/>
<path opacity="0.1" d="M89.4468 166.872V247.971C89.4869 248.689 89.6951 249.387 90.0546 250.009C90.4142 250.631 90.9149 251.16 91.5165 251.554L93.8488 252.899C94.0281 253.003 94.2174 253.088 94.414 253.154C94.691 253.247 94.9761 253.313 95.2657 253.353C95.8096 253.419 96.3606 253.398 96.8976 253.289C97.0352 253.264 97.1708 253.229 97.3036 253.185L97.5503 253.09C97.3932 253.158 97.2239 253.192 97.0528 253.192C96.8817 253.192 96.7124 253.158 96.5553 253.09C96.335 252.943 96.1596 252.738 96.0486 252.498C95.9376 252.258 95.8953 251.992 95.9264 251.729V170.613C95.9055 170.245 95.997 169.878 96.1889 169.563C96.3808 169.247 96.664 168.997 97.0011 168.846L95.9264 168.225L90.0438 164.834C89.675 165.452 89.4695 166.153 89.4468 166.872Z" fill="black"/>
<path opacity="0.2" d="M95.9264 168.225L144.922 186.534C146.616 187.165 148.475 187.201 150.192 186.636C151.91 186.07 153.384 184.936 154.371 183.422L162.236 171.37L205.635 104.877L163.804 171.823L205.85 188.277C205.815 189.008 205.593 189.718 205.205 190.339L163.692 172.03L154.522 186.637C153.506 188.26 151.939 189.463 150.109 190.024C148.278 190.586 146.307 190.468 144.556 189.694L138.044 186.821L96.5553 253.106C96.335 252.959 96.1596 252.754 96.0486 252.514C95.9376 252.274 95.8953 252.007 95.9264 251.745V250.399L137.861 186.773L95.9264 168.225Z" fill="black"/>
<path d="M183.219 75.1218V261.313C183.219 263.51 184.763 264.401 186.666 263.303L270.312 215.008C271.315 214.353 272.15 213.472 272.749 212.434C273.348 211.397 273.694 210.234 273.759 209.038V22.8466C273.759 20.6496 272.215 19.758 270.312 20.8565L186.666 69.1516C185.662 69.8052 184.826 70.6866 184.227 71.724C183.628 72.7614 183.283 73.9256 183.219 75.1218Z" fill="#FAFAFA" stroke="#E0E0E0" stroke-width="1.16981" stroke-miterlimit="10"/>
<path d="M188.067 78.5845C188.094 78.2897 188.189 78.0052 188.345 77.7537C188.501 77.5022 188.714 77.2906 188.966 77.1358L198.518 71.6352C199.012 71.3486 199.41 71.5397 199.41 72.0571C199.385 72.3514 199.291 72.6356 199.136 72.8872C198.981 73.1387 198.77 73.3506 198.518 73.5059L188.966 79.0064C188.473 79.293 188.067 79.1019 188.067 78.5845Z" fill="#45644A"/>
<path d="M188.067 82.294C188.093 81.999 188.188 81.7143 188.344 81.4627C188.5 81.2111 188.713 80.9996 188.966 80.8452L198.518 75.3447C199.012 75.0581 199.41 75.2492 199.41 75.7586C199.386 76.0543 199.293 76.3401 199.138 76.5931C198.983 76.8462 198.771 77.0593 198.518 77.2153L188.966 82.7079C188.473 82.9945 188.067 82.8114 188.067 82.294Z" fill="#45644A"/>
<path d="M188.067 86.0035C188.093 85.7085 188.188 85.4238 188.344 85.1722C188.5 84.9206 188.713 84.7091 188.966 84.5548L198.518 79.0542C199.012 78.7676 199.41 78.9507 199.41 79.4681C199.386 79.7627 199.293 80.0475 199.138 80.2992C198.983 80.551 198.771 80.7626 198.518 80.9169L188.966 86.4175C188.473 86.7359 188.067 86.521 188.067 86.0035Z" fill="#45644A"/>
<path d="M267.295 38.2577V36.7691C267.296 36.751 267.292 36.7331 267.283 36.7171C267.275 36.7011 267.262 36.6875 267.247 36.6779C267.232 36.6682 267.214 36.6627 267.196 36.662C267.178 36.6612 267.16 36.6652 267.144 36.6736L265.998 37.191C265.98 37.2 265.96 37.2047 265.94 37.205C265.92 37.2053 265.9 37.2011 265.881 37.1927C265.863 37.1844 265.847 37.172 265.834 37.1565C265.821 37.1411 265.812 37.123 265.807 37.1035C265.746 36.905 265.66 36.7151 265.552 36.5383C265.53 36.4951 265.519 36.4474 265.519 36.399C265.519 36.3506 265.53 36.3029 265.552 36.2597L266.348 34.7154C266.368 34.6762 266.371 34.631 266.358 34.5893C266.344 34.5476 266.315 34.5129 266.276 34.4925L265.48 34.0149C265.443 33.9957 265.399 33.9908 265.358 34.0011C265.317 34.0113 265.282 34.036 265.257 34.0706L264.302 35.5034C264.274 35.5419 264.236 35.5728 264.193 35.5936C264.15 35.6144 264.103 35.6244 264.055 35.6229C263.847 35.6212 263.638 35.6425 263.434 35.6865C263.415 35.6926 263.394 35.6942 263.374 35.6911C263.354 35.6881 263.335 35.6806 263.318 35.6691C263.301 35.6576 263.287 35.6425 263.277 35.6248C263.267 35.6072 263.261 35.5875 263.259 35.5671L263.132 34.3174C263.132 34.2298 263.052 34.19 262.981 34.2378L261.691 34.9781C261.65 35.0048 261.616 35.0399 261.59 35.0811C261.564 35.1223 261.547 35.1686 261.54 35.2169L261.413 36.6497C261.395 36.7514 261.348 36.8457 261.277 36.9204C261.019 37.1675 260.779 37.4336 260.561 37.7164C260.53 37.7521 260.49 37.778 260.444 37.7907C260.399 37.8035 260.351 37.8025 260.306 37.788L259.51 37.5015C259.467 37.488 259.421 37.4892 259.379 37.5051C259.337 37.521 259.302 37.5506 259.279 37.589L258.332 39.2289C258.313 39.2678 258.306 39.3118 258.313 39.3547C258.32 39.3976 258.341 39.4371 258.372 39.4677L259.04 40.0408C259.073 40.0735 259.096 40.1145 259.108 40.1593C259.119 40.2042 259.118 40.2513 259.104 40.2955C258.981 40.6229 258.88 40.958 258.802 41.2985C258.775 41.395 258.719 41.4811 258.642 41.5453L257.464 42.3413C257.425 42.3717 257.392 42.4102 257.369 42.4541C257.346 42.498 257.332 42.5464 257.329 42.5961V44.0767C257.325 44.0957 257.327 44.1155 257.335 44.1334C257.342 44.1513 257.355 44.1665 257.371 44.1768C257.388 44.1872 257.407 44.1923 257.427 44.1915C257.446 44.1907 257.465 44.1839 257.48 44.1722L258.626 43.6548C258.645 43.6473 258.665 43.644 258.685 43.6448C258.706 43.6457 258.725 43.6508 258.743 43.6598C258.761 43.6688 258.777 43.6816 258.79 43.6971C258.803 43.7127 258.812 43.7308 258.817 43.7503C258.878 43.9487 258.964 44.1387 259.072 44.3155C259.094 44.3587 259.105 44.4064 259.105 44.4548C259.105 44.5032 259.094 44.5509 259.072 44.5941L258.276 46.1304C258.258 46.171 258.255 46.2169 258.268 46.2593C258.282 46.3018 258.31 46.3381 258.348 46.3613L259.144 46.8389C259.181 46.858 259.225 46.8629 259.266 46.8527C259.307 46.8424 259.343 46.8178 259.367 46.7832L260.322 45.3503C260.35 45.3119 260.388 45.281 260.431 45.2602C260.474 45.2394 260.521 45.2293 260.569 45.2309C260.777 45.2326 260.986 45.2113 261.19 45.1672C261.209 45.1612 261.23 45.1596 261.25 45.1626C261.27 45.1656 261.289 45.1732 261.306 45.1846C261.323 45.1961 261.337 45.2113 261.347 45.2289C261.357 45.2466 261.363 45.2663 261.365 45.2866L261.492 46.5364C261.492 46.624 261.564 46.6638 261.643 46.616L262.933 45.8757C262.974 45.847 263.008 45.8103 263.034 45.7679C263.06 45.7255 263.077 45.6782 263.084 45.6289L263.212 44.1961C263.227 44.0962 263.275 44.0041 263.347 43.9334C263.605 43.6863 263.845 43.4202 264.063 43.1374C264.094 43.1016 264.135 43.0758 264.18 43.063C264.225 43.0503 264.273 43.0512 264.318 43.0657L265.114 43.3523C265.157 43.3658 265.203 43.3645 265.245 43.3486C265.287 43.3327 265.322 43.3032 265.345 43.2647L266.292 41.6249C266.312 41.5842 266.319 41.538 266.31 41.4934C266.301 41.4488 266.278 41.4083 266.244 41.3781L265.584 40.813C265.551 40.7803 265.528 40.7393 265.517 40.6944C265.505 40.6496 265.507 40.6025 265.52 40.5582C265.643 40.2309 265.744 39.8958 265.823 39.5552C265.845 39.4568 265.901 39.3695 265.982 39.3085L267.16 38.5124C267.198 38.4813 267.23 38.4427 267.254 38.399C267.277 38.3552 267.291 38.3071 267.295 38.2577ZM262.256 42.9543C261.054 43.6548 260.083 43.0896 260.083 41.7045C260.12 40.9484 260.337 40.2119 260.715 39.5559C261.093 38.8998 261.621 38.343 262.256 37.9313C263.458 37.2388 264.429 37.804 264.429 39.1891C264.391 39.9438 264.174 40.6787 263.796 41.3333C263.418 41.9878 262.891 42.5434 262.256 42.9543Z" fill="#374F3B"/>
<path d="M228.489 74.9546C238.264 69.3108 246.185 73.8879 246.185 85.1756C246.185 96.4633 238.264 110.179 228.489 115.823C218.714 121.467 210.793 116.889 210.793 105.61C210.793 94.3299 218.714 80.5984 228.489 74.9546Z" fill="#45644A"/>
<path d="M228.369 83.8383C231.554 82.0074 234.109 83.488 234.109 87.1498C234 89.1401 233.423 91.0767 232.426 92.8027C231.429 94.5287 230.039 95.9955 228.369 97.0842C225.185 98.9151 222.622 97.4344 222.622 93.7727C222.731 91.7815 223.309 89.8442 224.307 88.1181C225.306 86.3919 226.698 84.9256 228.369 83.8383Z" fill="#2D8C3C"/>
<path d="M239.697 103.357C239.697 97.3469 235.47 94.9031 230.264 97.9121L226.961 99.7907C221.755 102.8 217.528 110.139 217.528 116.133V117.781C218.511 118.095 219.537 118.254 220.568 118.251C223.361 118.156 226.081 117.332 228.457 115.863C233.004 113.07 236.849 109.271 239.697 104.758V103.357Z" fill="#2D8C3C"/>
<path d="M212.52 132.611L244.473 114.167C245.42 113.618 246.192 114.008 246.192 115.043C246.149 115.62 245.971 116.18 245.673 116.676C245.374 117.172 244.963 117.592 244.473 117.9L212.528 136.344C211.573 136.902 210.801 136.504 210.801 135.477C210.842 134.897 211.019 134.336 211.318 133.838C211.617 133.34 212.029 132.92 212.52 132.611Z" fill="#2D8C3C"/>
<path d="M209.09 145.809L247.888 123.353C248.843 122.804 249.615 123.194 249.615 124.229C249.572 124.807 249.393 125.368 249.093 125.864C248.793 126.361 248.38 126.779 247.888 127.087L209.09 149.542C208.134 150.092 207.362 149.702 207.362 148.667C207.406 148.088 207.584 147.528 207.885 147.032C208.185 146.535 208.598 146.116 209.09 145.809Z" fill="#45644A"/>
<path d="M248.923 141.455L259.789 135.182C260.362 134.856 260.824 135.007 260.824 135.524C260.781 135.842 260.665 136.145 260.485 136.41C260.306 136.675 260.067 136.895 259.789 137.053L248.923 143.325C248.358 143.652 247.888 143.501 247.888 142.991C247.932 142.673 248.048 142.369 248.227 142.103C248.407 141.837 248.645 141.615 248.923 141.455Z" fill="#374F3B"/>
<path d="M194.642 169.069L210.602 159.859C211.549 159.31 212.322 159.755 212.322 160.854V171.807C212.289 172.405 212.116 172.986 211.817 173.505C211.519 174.023 211.102 174.464 210.602 174.792L194.642 184.002C193.695 184.552 192.922 184.106 192.922 183.007V172.054C192.955 171.457 193.128 170.875 193.427 170.357C193.725 169.838 194.141 169.397 194.642 169.069Z" fill="#2D8C3C"/>
<path d="M197.189 170.597L208.055 164.325C208.628 163.998 209.09 164.15 209.09 164.659C209.048 164.978 208.933 165.282 208.753 165.549C208.573 165.816 208.335 166.037 208.055 166.195L197.189 172.468C196.616 172.794 196.154 172.643 196.154 172.134C196.196 171.815 196.311 171.51 196.491 171.244C196.671 170.977 196.91 170.756 197.189 170.597Z" fill="#FAFAFA"/>
<path d="M196.154 176.122V179.306C196.154 179.967 196.616 180.229 197.189 179.903L208.055 173.63C208.356 173.434 208.607 173.17 208.787 172.859C208.966 172.547 209.07 172.198 209.09 171.839V168.655C209.09 167.994 208.628 167.732 208.055 168.058L197.189 174.299C196.885 174.499 196.632 174.769 196.452 175.086C196.272 175.403 196.17 175.758 196.154 176.122Z" fill="#FAFAFA"/>
<path d="M220.513 154.136L236.433 144.925C237.388 144.376 238.161 144.822 238.161 145.921V156.874C238.128 157.472 237.955 158.055 237.655 158.573C237.354 159.092 236.936 159.533 236.433 159.859L220.513 169.069C219.557 169.618 218.793 169.172 218.793 168.074V157.121C218.824 156.523 218.996 155.941 219.295 155.422C219.594 154.903 220.011 154.462 220.513 154.136Z" fill="#2D8C3C"/>
<path d="M223.06 155.664L233.926 149.391C234.491 149.065 234.953 149.216 234.953 149.726C234.91 150.043 234.796 150.347 234.618 150.613C234.44 150.88 234.203 151.101 233.926 151.262L223.06 157.535C222.487 157.861 222.025 157.71 222.025 157.192C222.068 156.875 222.184 156.572 222.364 156.307C222.543 156.042 222.781 155.822 223.06 155.664Z" fill="#FAFAFA"/>
<path d="M222.025 161.188V164.372C222.025 165.033 222.487 165.296 223.06 164.97L233.926 158.697C234.225 158.499 234.473 158.234 234.651 157.923C234.83 157.612 234.933 157.264 234.953 156.906V153.722C234.953 153.061 234.483 152.798 233.918 153.125L223.052 159.397C222.752 159.594 222.503 159.859 222.325 160.17C222.146 160.481 222.044 160.83 222.025 161.188Z" fill="#FAFAFA"/>
<path d="M246.384 139.202L262.304 129.984C263.251 129.435 264.024 129.881 264.024 130.979V141.94C263.991 142.538 263.818 143.119 263.519 143.638C263.221 144.156 262.804 144.597 262.304 144.926L246.384 154.136C245.428 154.685 244.656 154.239 244.656 153.141V142.187C244.689 141.589 244.862 141.006 245.162 140.488C245.462 139.969 245.881 139.528 246.384 139.202Z" fill="#2D8C3C"/>
<path d="M248.923 140.73L259.789 134.498C260.362 134.163 260.824 134.314 260.824 134.832C260.782 135.15 260.667 135.453 260.488 135.719C260.308 135.984 260.069 136.204 259.789 136.36L248.923 142.633C248.358 142.967 247.888 142.816 247.888 142.299C247.925 141.974 248.038 141.663 248.218 141.391C248.398 141.118 248.639 140.892 248.923 140.73Z" fill="#FAFAFA"/>
<path d="M247.888 146.255V149.439C247.888 150.092 248.358 150.362 248.923 150.036L259.789 143.755C260.09 143.56 260.341 143.295 260.521 142.984C260.701 142.673 260.805 142.323 260.824 141.964V138.78C260.824 138.119 260.362 137.849 259.789 138.183L248.923 144.456C248.621 144.653 248.37 144.919 248.19 145.232C248.011 145.544 247.907 145.895 247.888 146.255Z" fill="#FAFAFA"/>
<path d="M196.369 194.2L260.609 157.113C262.519 156.014 264.055 156.794 264.055 158.856C263.972 160.014 263.617 161.136 263.018 162.131C262.419 163.125 261.593 163.964 260.609 164.579L196.369 201.666C194.467 202.765 192.922 201.985 192.922 199.923C193.007 198.766 193.364 197.644 193.963 196.65C194.561 195.656 195.386 194.816 196.369 194.2Z" fill="#E0E0E0"/>
<path d="M196.369 209.141L260.609 172.054C262.519 170.956 264.055 171.736 264.055 173.797C263.972 174.955 263.617 176.077 263.018 177.072C262.419 178.067 261.593 178.906 260.609 179.521L196.369 216.616C194.467 217.714 192.922 216.934 192.922 214.865C193.007 213.707 193.364 212.586 193.963 211.591C194.561 210.597 195.386 209.758 196.369 209.141Z" fill="#E0E0E0"/>
<path d="M217.281 215.74L239.697 202.797C240.652 202.247 241.424 202.693 241.424 203.792V211.012C241.392 211.61 241.218 212.192 240.918 212.711C240.618 213.23 240.2 213.67 239.697 213.997L217.281 226.94C216.326 227.489 215.553 227.044 215.553 225.945V218.725C215.586 218.127 215.759 217.544 216.06 217.026C216.36 216.507 216.778 216.066 217.281 215.74Z" fill="#2D8C3C"/>
<path d="M197.77 195.306C197.304 195.616 196.917 196.031 196.64 196.518C196.364 197.004 196.205 197.549 196.178 198.108C196.178 199.135 196.902 199.557 197.77 199.04C198.236 198.73 198.623 198.315 198.9 197.828C199.176 197.341 199.335 196.797 199.362 196.238C199.386 195.211 198.662 194.789 197.77 195.306Z" fill="#FAFAFA"/>
<path d="M202.896 192.345C202.429 192.654 202.042 193.068 201.765 193.555C201.488 194.042 201.331 194.588 201.304 195.147C201.304 196.174 202.021 196.596 202.896 196.078C203.363 195.768 203.75 195.354 204.026 194.867C204.303 194.38 204.461 193.835 204.489 193.276C204.512 192.249 203.788 191.812 202.896 192.345Z" fill="#FAFAFA"/>
<path d="M208.015 189.424C207.549 189.733 207.162 190.148 206.885 190.635C206.609 191.122 206.451 191.666 206.423 192.226C206.423 193.252 207.147 193.674 208.015 193.157C208.481 192.847 208.868 192.432 209.145 191.946C209.421 191.459 209.58 190.914 209.607 190.355C209.631 189.288 208.907 188.866 208.015 189.424Z" fill="#FAFAFA"/>
<path d="M213.141 186.422C212.675 186.732 212.287 187.147 212.011 187.633C211.734 188.12 211.576 188.665 211.549 189.225C211.549 190.251 212.274 190.673 213.141 190.156C213.608 189.846 213.995 189.431 214.271 188.944C214.548 188.458 214.706 187.913 214.733 187.354C214.757 186.327 214.033 185.905 213.141 186.422Z" fill="#FAFAFA"/>
<path d="M218.26 183.461C217.794 183.771 217.407 184.186 217.13 184.673C216.854 185.159 216.695 185.704 216.668 186.263C216.668 187.29 217.392 187.712 218.26 187.195C218.726 186.885 219.113 186.47 219.39 185.983C219.666 185.496 219.825 184.952 219.852 184.393C219.876 183.366 219.152 182.944 218.26 183.461Z" fill="#FAFAFA"/>
<path d="M223.378 180.5C222.912 180.81 222.525 181.225 222.249 181.711C221.972 182.198 221.814 182.743 221.786 183.302C221.786 184.329 222.511 184.751 223.378 184.233C223.846 183.925 224.233 183.51 224.51 183.023C224.787 182.536 224.944 181.991 224.97 181.431C224.994 180.404 224.278 179.983 223.378 180.5Z" fill="#FAFAFA"/>
<path d="M228.505 177.539C228.039 177.849 227.652 178.263 227.375 178.75C227.099 179.237 226.94 179.782 226.913 180.341C226.913 181.368 227.637 181.79 228.505 181.272C228.971 180.962 229.358 180.547 229.635 180.061C229.911 179.574 230.07 179.029 230.097 178.47C230.145 177.483 229.396 177.021 228.505 177.539Z" fill="#FAFAFA"/>
<path d="M197.77 210.256C197.305 210.566 196.918 210.981 196.642 211.468C196.366 211.954 196.207 212.499 196.178 213.058C196.178 214.092 196.902 214.506 197.77 213.989C198.236 213.681 198.623 213.267 198.9 212.782C199.176 212.297 199.335 211.753 199.362 211.195C199.386 210.16 198.662 209.746 197.77 210.256Z" fill="#FAFAFA"/>
<path d="M202.896 207.294C202.43 207.604 202.042 208.018 201.766 208.505C201.489 208.992 201.331 209.537 201.304 210.096C201.304 211.131 202.021 211.545 202.896 211.028C203.363 210.72 203.75 210.306 204.026 209.821C204.303 209.335 204.461 208.792 204.489 208.234C204.512 207.199 203.788 206.785 202.896 207.294Z" fill="#FAFAFA"/>
<path d="M208.015 204.333C207.55 204.644 207.163 205.059 206.887 205.545C206.611 206.032 206.452 206.576 206.423 207.135C206.423 208.17 207.147 208.584 208.015 208.066C208.481 207.758 208.868 207.345 209.145 206.86C209.421 206.374 209.58 205.83 209.607 205.272C209.631 204.238 208.907 203.816 208.015 204.333Z" fill="#FAFAFA"/>
<path d="M213.141 201.364C212.675 201.674 212.288 202.089 212.012 202.575C211.735 203.062 211.577 203.607 211.549 204.166C211.549 205.201 212.274 205.615 213.141 205.097C213.607 204.789 213.994 204.376 214.271 203.89C214.548 203.405 214.706 202.861 214.733 202.303C214.757 201.276 214.033 200.854 213.141 201.364Z" fill="#FAFAFA"/>
<path d="M218.26 198.411C217.794 198.72 217.407 199.135 217.13 199.622C216.854 200.109 216.695 200.653 216.668 201.213C216.668 202.247 217.392 202.661 218.26 202.144C218.726 201.836 219.113 201.422 219.39 200.937C219.666 200.452 219.825 199.908 219.852 199.35C219.876 198.315 219.152 197.893 218.26 198.411Z" fill="#FAFAFA"/>
<path d="M223.378 195.449C222.912 195.759 222.525 196.174 222.249 196.661C221.972 197.147 221.814 197.692 221.786 198.251C221.786 199.286 222.511 199.7 223.378 199.183C223.846 198.875 224.235 198.46 224.512 197.973C224.788 197.486 224.946 196.94 224.97 196.381C224.994 195.354 224.278 194.932 223.378 195.449Z" fill="#FAFAFA"/>
<path d="M228.505 192.488C228.039 192.798 227.652 193.213 227.375 193.7C227.099 194.186 226.94 194.731 226.913 195.29C226.913 196.325 227.637 196.739 228.505 196.222C228.972 195.912 229.359 195.497 229.635 195.011C229.912 194.524 230.07 193.979 230.097 193.42C230.145 192.393 229.396 191.971 228.505 192.488Z" fill="#FAFAFA"/>
<path d="M300.346 226.144C297.595 226.163 294.889 225.449 292.505 224.075C286.766 220.755 283.479 213.83 283.479 205.05C283.479 189.623 293.286 171.879 305.767 164.651C312.51 160.759 319.204 160.337 324.625 163.465C330.357 166.777 333.652 173.71 333.652 182.482C333.652 197.909 323.845 215.661 311.324 222.889C308.012 224.915 304.227 226.037 300.346 226.144ZM316.792 172.508C314.855 172.645 312.981 173.26 311.34 174.299C302.265 179.513 294.623 193.611 294.623 205.05C294.623 209.682 295.92 213.201 298.094 214.451C300.569 215.884 304.016 214.323 305.839 213.265C314.938 208.019 322.611 193.921 322.611 182.482C322.611 177.849 321.314 174.339 319.141 173.081C318.424 172.68 317.613 172.482 316.792 172.508Z" fill="#45644A"/>
<path d="M324.561 184.95C324.561 176.281 319.101 173.081 319.101 173.081C321.274 174.339 322.571 177.857 322.571 182.482C322.571 193.921 314.898 208.019 305.799 213.265C303.976 214.323 300.537 215.884 298.054 214.451C298.054 214.451 302.663 217.316 309.031 213.838C318.249 208.815 324.561 196.389 324.561 184.95Z" fill="#374F3B"/>
<path d="M315.805 76.6184C315.75 75.1322 315.121 73.7253 314.05 72.6934C312.979 71.6615 311.549 71.085 310.062 71.085C308.575 71.085 307.145 71.6615 306.074 72.6934C305.003 73.7253 304.374 75.1322 304.319 76.6184V167.931C304.36 168.443 304.537 168.934 304.833 169.354C305.128 169.774 305.53 170.107 305.998 170.319C307.257 170.955 308.648 171.286 310.058 171.286C311.468 171.286 312.859 170.955 314.118 170.319C314.587 170.109 314.992 169.777 315.289 169.356C315.586 168.936 315.764 168.444 315.805 167.931V76.6343V76.6184Z" fill="#374F3B"/>
<path d="M311.22 97.0286C311.157 95.8772 310.824 94.7569 310.247 93.7583C309.67 92.7598 308.867 91.9112 307.901 91.2813C307.56 91.0315 307.157 90.8801 306.736 90.8436C306.314 90.8071 305.891 90.8869 305.513 91.0744L291.359 99.2336L291.017 99.4326C290.965 99.4541 290.916 99.4836 290.874 99.5202C290.632 99.6832 290.406 99.8669 290.197 100.069C289.399 100.865 288.913 101.921 288.829 103.045C288.745 104.169 289.068 105.286 289.739 106.192C290.41 107.097 291.384 107.731 292.484 107.978C293.584 108.225 294.736 108.068 295.729 107.536L296 107.377L310.257 99.17C310.592 98.9301 310.858 98.6055 311.028 98.2294C311.197 97.8532 311.263 97.4389 311.22 97.0286Z" fill="#45644A"/>
<path d="M311.22 119.891C311.156 118.74 310.822 117.622 310.246 116.625C309.669 115.628 308.866 114.78 307.901 114.151C307.561 113.898 307.159 113.745 306.737 113.707C306.316 113.669 305.892 113.748 305.513 113.936L288.908 123.489L288.565 123.688C288.514 123.71 288.466 123.74 288.422 123.775C288.179 123.936 287.953 124.12 287.745 124.324C287.227 124.841 286.836 125.471 286.603 126.164C286.37 126.858 286.302 127.596 286.404 128.32C286.506 129.045 286.775 129.736 287.19 130.338C287.606 130.941 288.155 131.438 288.796 131.791C289.487 132.158 290.258 132.349 291.041 132.348C291.821 132.352 292.59 132.16 293.278 131.791C293.373 131.743 293.461 131.68 293.548 131.632L310.265 122.08C310.607 121.835 310.876 121.502 311.044 121.117C311.212 120.731 311.273 120.308 311.22 119.891Z" fill="#45644A"/>
</svg>
