<svg width="127" height="32" viewBox="0 0 127 32" fill="none" xmlns="http://www.w3.org/2000/svg">
<rect width="32" height="32" rx="8" fill="#2D8C3C"/>
<path d="M11.664 12.592V22.768C11.664 23.2 11.472 23.44 11.024 23.44C10.576 23.44 10.368 23.2 10.368 22.768V14.864C10.144 15.216 9.552 16.16 9.104 16.16C8.688 16.16 8.4 15.728 8.4 15.344C8.4 15.184 8.448 15.04 8.528 14.912C8.816 14.464 9.168 14.064 9.488 13.648C10.384 12.48 11.248 10.352 11.696 8.944C11.792 8.624 11.952 8.416 12.304 8.416C12.672 8.416 13.024 8.624 13.024 9.024C13.024 9.744 12.016 11.872 11.664 12.592ZM19.232 19.136C20.048 18.144 20.64 16.976 21.008 15.744C21.168 15.264 21.248 14.928 21.248 14.64C21.248 14.208 20.976 14.112 20.608 14.112H15.184V15.344C15.184 17.392 14.976 19.472 14.256 21.408C14.096 21.84 13.568 23.232 13.04 23.232C12.704 23.232 12.304 22.976 12.304 22.608C12.304 22.224 12.832 21.328 13.024 20.944C13.76 19.472 13.904 16.976 13.904 15.328V10.64C13.904 9.408 14.368 8.944 15.6 8.944H22.768C23.2 8.944 23.44 9.104 23.44 9.552C23.44 9.984 23.184 10.16 22.768 10.16H15.888C15.424 10.16 15.184 10.416 15.184 10.88V12.928H20.976C21.984 12.928 22.56 13.232 22.56 14.336C22.56 14.928 22.352 15.616 22.176 16.192C21.744 17.616 21.04 18.976 20.064 20.128C20.88 20.944 21.872 21.504 22.928 21.936C23.184 22.048 23.424 22.192 23.424 22.496C23.424 22.864 23.184 23.296 22.784 23.296C22.288 23.296 21.328 22.72 20.912 22.432C20.288 22.032 19.712 21.552 19.184 21.024C18.496 21.648 17.744 22.176 16.928 22.624C16.384 22.928 15.568 23.36 15.2 23.36C14.816 23.36 14.56 22.96 14.56 22.608C14.56 22.48 14.608 22.336 14.72 22.24C14.944 22.032 15.856 21.664 16.176 21.52C16.976 21.136 17.696 20.64 18.352 20.064C17.616 19.104 17.072 18 16.672 16.864C16.512 16.416 16.224 15.584 16.224 15.12C16.224 14.784 16.592 14.608 16.88 14.608C17.024 14.608 17.168 14.64 17.264 14.752C17.44 14.96 17.776 16.176 17.872 16.512C18.176 17.44 18.672 18.352 19.232 19.136Z" fill="white" fill-opacity="0.9"/>
<path d="M44.5003 19.4154C44.1668 18.4148 44 17.3223 44 16.1378C44 14.9534 44.1668 13.8609 44.5003 12.8602C44.8339 11.8596 45.3001 11.0257 45.8992 10.3586C46.4982 9.69156 47.1925 9.17762 47.9821 8.81685C48.7718 8.45607 49.6124 8.27569 50.5041 8.27569C51.498 8.27569 52.4237 8.50032 53.2814 8.94959C54.1459 9.39204 54.8777 10.0251 55.4767 10.8488L53.1793 12.5641C52.8322 12.074 52.434 11.6962 51.9847 11.4308C51.5354 11.1653 51.0691 11.0325 50.5858 11.0325C49.6397 11.0325 48.8466 11.4954 48.2068 12.4212C47.5737 13.3538 47.2572 14.5926 47.2572 16.1378C47.2572 17.683 47.5737 18.9219 48.2068 19.8545C48.8466 20.7803 49.6397 21.2431 50.5858 21.2431C51.0691 21.2431 51.5354 21.1104 51.9847 20.8449C52.434 20.5795 52.8322 20.2017 53.1793 19.7116L55.4767 21.4269C54.8777 22.2506 54.1459 22.887 53.2814 23.3363C52.4237 23.7788 51.498 24 50.5041 24C49.6124 24 48.7718 23.8196 47.9821 23.4588C47.1925 23.0981 46.4982 22.5841 45.8992 21.917C45.3001 21.2499 44.8339 20.4161 44.5003 19.4154Z" fill="black"/>
<path d="M56.2731 23.6018L60.9292 8.582H65.238L69.9247 23.6018H66.6879L65.7792 20.6713H60.4084L59.4895 23.6018H56.2731ZM61.307 17.7715H64.8602L63.0836 12.0536L61.307 17.7715Z" fill="black"/>
<path d="M75.9347 23.6222V8.61264H80.8357C81.9861 8.61264 82.9119 8.73516 83.613 8.98022C85.5666 9.66773 86.5435 11.104 86.5435 13.2891C86.5435 14.4259 86.2746 15.3891 85.7368 16.1787C85.1991 16.9819 84.4911 17.5809 83.613 17.9757C82.8574 18.3093 81.9181 18.4761 80.7949 18.4761H79.1816V23.6222H75.9347ZM79.1816 15.9438H80.2027C80.931 15.9438 81.4824 15.8758 81.8568 15.7396C82.803 15.4061 83.2761 14.6675 83.2761 13.5239C83.2761 12.8705 83.1603 12.3701 82.9289 12.023C82.6975 11.6758 82.3333 11.4376 81.8364 11.3082C81.4211 11.2061 80.8698 11.1551 80.1823 11.1551H79.1816V15.9438Z" fill="black"/>
<path d="M87.5747 23.6018L92.2308 8.582H96.5396L101.226 23.6018H97.9895L97.0808 20.6713H91.71L90.7911 23.6018H87.5747ZM92.6086 17.7715H96.1618L94.3852 12.0536L92.6086 17.7715Z" fill="black"/>
<path d="M102.686 21.7435L104.371 19.5278C105.733 20.6237 106.92 21.1717 107.935 21.1717C108.459 21.1717 108.891 21.0083 109.231 20.6816C109.579 20.3548 109.752 19.926 109.752 19.395C109.752 18.9185 109.609 18.5169 109.323 18.1902C109.037 17.8566 108.581 17.5537 107.955 17.2814C106.764 16.7777 105.893 16.3625 105.341 16.0357C103.721 15.0691 102.911 13.8881 102.911 12.4927C102.911 11.1108 103.377 10.0149 104.31 9.20485C105.242 8.40162 106.471 8 107.996 8C109.929 8 111.587 8.75218 112.968 10.2565L111.274 12.4722C110.681 11.9004 110.137 11.4818 109.64 11.2163C109.157 10.9577 108.636 10.8283 108.078 10.8283C107.56 10.8283 107.152 10.9577 106.852 11.2163C106.553 11.475 106.403 11.8324 106.403 12.2884C106.403 12.6901 106.522 13.0304 106.76 13.3095C107.005 13.5818 107.417 13.8541 107.996 14.1264L108.894 14.5552L109.824 14.984C109.912 15.0249 110.201 15.1746 110.692 15.4333C111.052 15.6307 111.331 15.8009 111.529 15.9438C112.101 16.3455 112.516 16.7913 112.774 17.2814C113.101 17.8736 113.265 18.5441 113.265 19.2929C113.265 20.2595 113.023 21.107 112.54 21.8354C112.063 22.5433 111.43 23.081 110.64 23.4486C109.858 23.8162 108.976 24 107.996 24C106.968 24 105.988 23.7924 105.055 23.3772C104.116 22.9619 103.326 22.4174 102.686 21.7435Z" fill="black"/>
<path d="M115.511 21.7435L117.196 19.5278C118.557 20.6237 119.745 21.1717 120.759 21.1717C121.283 21.1717 121.716 21.0083 122.056 20.6816C122.403 20.3548 122.577 19.926 122.577 19.395C122.577 18.9185 122.434 18.5169 122.148 18.1902C121.862 17.8566 121.406 17.5537 120.78 17.2814C119.588 16.7777 118.717 16.3625 118.166 16.0357C116.546 15.0691 115.736 13.8881 115.736 12.4927C115.736 11.1108 116.202 10.0149 117.134 9.20485C118.067 8.40162 119.296 8 120.82 8C122.754 8 124.411 8.75218 125.793 10.2565L124.098 12.4722C123.506 11.9004 122.961 11.4818 122.464 11.2163C121.981 10.9577 121.46 10.8283 120.902 10.8283C120.385 10.8283 119.976 10.9577 119.677 11.2163C119.377 11.475 119.228 11.8324 119.228 12.2884C119.228 12.6901 119.347 13.0304 119.585 13.3095C119.83 13.5818 120.242 13.8541 120.82 14.1264L121.719 14.5552L122.648 14.984C122.737 15.0249 123.026 15.1746 123.516 15.4333C123.877 15.6307 124.156 15.8009 124.353 15.9438C124.925 16.3455 125.34 16.7913 125.599 17.2814C125.926 17.8736 126.089 18.5441 126.089 19.2929C126.089 20.2595 125.847 21.107 125.364 21.8354C124.888 22.5433 124.255 23.081 123.465 23.4486C122.682 23.8162 121.801 24 120.82 24C119.793 24 118.812 23.7924 117.88 23.3772C116.94 22.9619 116.151 22.4174 115.511 21.7435Z" fill="black"/>
</svg>
